<svg width="79" height="79" viewBox="0 0 79 79" fill="none" xmlns="http://www.w3.org/2000/svg">
<path d="M79 39.5C79 61.3153 61.3123 79 39.4981 79C17.6877 79 0 61.3153 0 39.5C0 17.6847 17.6877 0 39.4981 0C61.3123 0 79 17.6847 79 39.5Z" fill="#412C88"/>
<path d="M36.1036 26V42.6731C36.1036 49.7728 31.7751 53 26.584 53C21.582 53 17 49.7728 17 42.6731V40.3639H23.4095V42.5728C23.4095 45.7318 24.9154 46.4454 26.584 46.4454C28.4417 46.4454 29.7244 45.7318 29.7244 42.5728V26H36.1036ZM41.798 26H61V32.5866H48.2113V36.3911H58.7222V42.5367H48.2113V45.9323H61V52.4909H41.798V26Z" fill="white"/>
</svg>
